<?xml version="1.0" standalone="no"?>
<!DOCTYPE svg PUBLIC "-//W3C//DTD SVG 20010904//EN"
 "http://www.w3.org/TR/2001/REC-SVG-20010904/DTD/svg10.dtd">
<svg version="1.0" xmlns="http://www.w3.org/2000/svg"
 width="4096.000000pt" height="4096.000000pt" viewBox="0 0 4096.000000 4096.000000"
 preserveAspectRatio="xMidYMid meet">
<metadata>
Created by potrace 1.14, written by Peter Selinger 2001-2017
</metadata>
<g transform="translate(0.000000,4096.000000) scale(0.100000,-0.100000)"
fill="#000000" stroke="none">
<path d="M19667 32087 c11 -42 60 -144 127 -260 85 -148 128 -242 204 -442 97
-258 194 -584 216 -728 3 -21 12 -71 20 -110 28 -141 41 -264 51 -462 3 -55 7
-152 11 -215 13 -252 13 -254 -6 -280 -57 -82 -99 -193 -106 -285 -6 -62 -4
-73 16 -98 29 -37 99 -76 148 -83 24 -3 81 3 144 16 138 28 208 71 224 135 3
14 10 28 15 31 5 3 9 16 9 29 0 24 -65 88 -145 143 -22 15 -55 40 -73 56 l-32
30 30 12 c44 19 125 99 175 174 24 36 78 135 121 220 76 153 129 250 218 397
152 250 453 651 666 887 19 22 60 67 90 100 30 34 167 175 305 314 137 139
252 257 254 263 3 10 -64 -24 -162 -83 -26 -15 -49 -28 -51 -28 -16 0 -339
-209 -461 -298 -172 -125 -282 -219 -446 -382 -194 -193 -318 -350 -471 -600
-42 -69 -83 -133 -90 -144 -12 -16 -18 0 -57 140 -154 557 -307 910 -514 1186
-106 140 -299 317 -408 374 -26 13 -27 12 -22 -9z"/>
<path d="M17390 30766 c40 -21 179 -77 545 -221 293 -115 474 -201 675 -321
119 -71 318 -209 410 -284 23 -19 59 -48 79 -65 184 -150 440 -418 690 -720
59 -73 327 -447 389 -545 12 -19 40 -72 63 -116 48 -96 53 -146 21 -217 -23
-51 -51 -69 -127 -80 l-40 -6 -65 92 c-73 104 -258 355 -278 375 -7 8 -24 30
-39 50 -28 37 -157 193 -223 267 -86 98 -315 319 -425 411 -442 367 -905 633
-1470 844 -376 140 -884 265 -1280 315 -11 2 -42 5 -68 9 -144 19 -166 21
-297 31 -47 4 -98 9 -115 10 -226 22 -843 22 -1040 1 -16 -2 -65 -6 -107 -10
-42 -4 -85 -8 -95 -10 -10 -2 -40 -7 -68 -10 -74 -10 -187 -29 -300 -52 -153
-30 -399 -102 -548 -160 -51 -20 -168 -74 -262 -120 -199 -98 -254 -128 -437
-243 -158 -99 -538 -364 -538 -376 0 -2 21 3 48 11 77 23 490 132 565 149 12
2 63 14 112 26 50 11 101 23 115 25 13 3 56 12 95 20 38 9 81 18 95 20 14 2
48 9 75 14 93 18 250 44 330 54 22 3 72 10 110 15 39 6 104 13 145 16 41 4 91
9 110 10 257 26 902 26 1125 0 17 -2 58 -6 92 -9 35 -4 82 -9 105 -12 80 -10
243 -34 268 -38 14 -3 42 -7 63 -10 51 -8 318 -63 337 -70 8 -3 26 -8 40 -10
92 -17 357 -97 540 -163 359 -129 745 -324 1090 -552 80 -52 150 -99 155 -103
6 -5 70 -53 143 -108 180 -135 326 -256 461 -385 346 -328 625 -655 867 -1017
121 -181 260 -448 314 -603 61 -175 129 -477 145 -644 3 -31 8 -69 10 -86 16
-119 25 -598 11 -612 -2 -3 -51 42 -108 99 -405 405 -859 701 -1563 1018 -75
34 -311 129 -390 156 -38 14 -79 29 -90 34 -26 12 -361 123 -450 149 -210 61
-297 84 -431 117 -133 31 -312 69 -383 79 -14 2 -53 9 -86 14 -52 9 -93 14
-194 27 -13 1 -63 5 -110 9 -47 3 -103 8 -124 10 -276 27 -991 26 -1292 0
-126 -12 -175 -17 -245 -25 -41 -5 -100 -12 -130 -15 -30 -3 -62 -8 -70 -10
-8 -2 -35 -7 -60 -10 -25 -3 -65 -10 -90 -15 -25 -5 -85 -16 -135 -25 -519
-96 -1082 -308 -1525 -575 -787 -474 -1394 -1051 -1745 -1660 -56 -98 -175
-343 -169 -349 9 -10 82 71 174 194 80 106 176 211 284 311 75 70 325 239 471
319 28 15 74 41 103 57 28 16 52 27 52 23 0 -3 -51 -70 -113 -148 -152 -190
-299 -391 -372 -507 -33 -52 -66 -104 -73 -115 -28 -45 -142 -281 -142 -295 0
-9 -4 -20 -9 -25 -9 -10 -51 -137 -78 -235 -36 -136 -73 -293 -70 -297 3 -2
40 30 83 71 44 40 95 88 114 106 19 18 105 98 190 179 85 81 187 176 225 211
39 36 90 83 115 106 25 23 63 57 85 75 22 19 45 39 50 45 6 6 50 44 100 85 49
41 99 82 110 92 38 34 280 214 376 279 286 195 699 407 1035 534 216 81 658
216 814 248 14 3 88 18 165 35 77 16 160 32 185 36 24 4 47 8 50 10 3 1 28 6
55 9 28 4 75 11 105 16 30 5 75 12 100 15 25 3 59 7 75 10 17 3 53 7 80 10 52
6 106 12 178 20 24 3 84 8 133 11 49 3 105 7 124 9 217 23 917 23 1130 1 19
-2 73 -7 120 -10 47 -4 99 -9 115 -11 17 -3 53 -7 80 -9 44 -4 232 -28 320
-42 35 -5 178 -30 250 -44 28 -5 61 -12 75 -14 57 -10 129 -26 195 -41 39 -9
77 -18 85 -20 13 -3 168 -40 210 -50 8 -2 74 -20 145 -40 72 -19 137 -37 145
-39 118 -32 537 -171 995 -331 121 -42 232 -80 246 -85 14 -4 88 -30 165 -58
76 -28 165 -56 197 -64 31 -7 57 -16 57 -20 0 -4 -8 -29 -19 -55 -23 -58 -57
-200 -65 -268 -3 -27 -9 -70 -12 -95 -7 -52 -6 -312 0 -361 3 -19 8 -63 11
-99 32 -330 128 -691 402 -1510 88 -263 287 -840 303 -875 13 -30 103 -292
191 -560 97 -294 251 -817 274 -930 2 -11 11 -51 20 -90 9 -38 19 -79 21 -90
2 -11 13 -60 23 -110 20 -89 65 -327 75 -395 3 -19 7 -44 10 -55 2 -11 9 -56
16 -100 6 -44 13 -91 15 -105 2 -14 7 -51 10 -83 4 -32 8 -67 10 -77 2 -10 7
-50 11 -87 3 -37 8 -79 10 -93 1 -14 6 -61 9 -105 3 -44 8 -93 10 -110 26
-191 26 -936 0 -1215 -2 -25 -6 -79 -10 -120 -3 -41 -8 -88 -10 -105 -2 -16
-9 -74 -15 -129 -7 -54 -13 -106 -15 -115 -1 -9 -5 -37 -9 -62 -4 -25 -9 -59
-12 -75 -20 -117 -24 -143 -29 -173 -3 -19 -19 -96 -36 -170 -17 -75 -32 -147
-35 -161 -15 -80 -115 -432 -169 -595 -286 -867 -719 -1606 -1369 -2340 -178
-200 -306 -329 -585 -585 -84 -77 -335 -274 -458 -358 -408 -282 -816 -471
-1253 -582 -122 -31 -381 -83 -475 -94 -27 -4 -57 -9 -65 -11 -8 -2 -42 -6
-75 -10 -33 -3 -89 -10 -125 -15 -36 -5 -101 -12 -145 -15 -44 -4 -97 -9 -119
-11 -54 -5 -254 -17 -476 -29 -104 -5 -198 -9 -480 -20 -203 -7 -364 -15 -665
-30 -170 -9 -416 -21 -630 -30 -66 -3 -158 -8 -205 -10 -209 -11 -489 -24
-650 -30 -249 -10 -406 -19 -510 -30 -25 -3 -70 -7 -100 -11 -74 -7 -299 -52
-319 -64 -10 -6 72 -10 229 -10 135 -1 396 -3 580 -5 184 -2 632 -6 995 -10
363 -3 833 -8 1045 -10 212 -2 666 -7 1010 -10 344 -3 823 -8 1065 -10 242 -3
780 -7 1195 -10 710 -4 1058 -9 1280 -21 216 -11 734 -4 880 11 34 4 577 9
2150 20 426 3 1041 8 1365 10 325 3 941 7 1370 10 429 3 987 8 1240 11 253 3
694 7 980 9 286 2 543 6 570 10 54 8 93 23 65 26 -24 2 -133 7 -315 13 -93 3
-235 8 -315 11 -80 3 -185 7 -235 10 -49 2 -216 7 -370 10 -154 3 -282 5 -285
6 -3 0 -277 2 -610 4 -3153 20 -4047 22 -4400 12 -338 -11 -483 -16 -527 -21
-208 -24 -463 -27 -508 -5 -17 8 -31 21 -33 29 -4 24 62 84 243 222 330 249
394 301 529 428 348 327 609 655 852 1075 68 119 244 476 244 496 0 8 4 19 9
24 4 6 13 24 19 40 6 17 29 77 51 135 71 180 182 564 217 745 4 22 9 45 10 50
4 14 53 292 59 340 3 22 8 47 10 55 2 8 7 43 10 77 3 34 7 70 9 80 2 10 7 50
10 88 4 39 9 86 11 105 4 37 12 134 20 235 16 222 20 390 20 855 0 454 -4 625
-20 875 -9 153 -17 253 -20 275 -2 14 -6 59 -10 100 -4 41 -8 86 -10 100 -2
14 -6 50 -10 80 -8 76 -25 209 -31 245 -3 17 -7 41 -9 55 -2 14 -7 45 -11 70
-4 25 -8 54 -10 65 -3 29 -12 73 -45 245 -17 85 -33 164 -35 175 -18 98 -148
571 -211 770 -46 146 -180 547 -253 755 -39 113 -93 268 -120 345 -112 328
-170 497 -205 600 -20 61 -40 119 -45 130 -5 11 -18 49 -30 85 -12 36 -67 196
-122 355 -55 160 -108 315 -118 345 -10 30 -98 289 -195 575 -97 286 -194 572
-215 635 -270 805 -387 1132 -482 1348 -23 51 -39 94 -37 96 2 3 146 7 319 10
173 3 464 9 645 12 943 19 2197 4 2755 -31 36 -2 106 -7 155 -10 50 -3 113 -7
140 -10 28 -2 88 -7 135 -10 81 -5 130 -9 230 -20 83 -9 144 -15 205 -20 33
-3 71 -7 85 -10 14 -2 54 -7 90 -10 36 -4 72 -8 80 -10 8 -2 44 -7 80 -10 36
-3 72 -8 80 -10 8 -2 35 -7 60 -10 25 -3 70 -10 100 -15 30 -5 73 -11 95 -14
45 -6 173 -28 325 -56 33 -6 72 -13 87 -16 16 -3 60 -12 98 -20 39 -8 103 -21
144 -30 89 -19 464 -111 506 -125 17 -5 86 -25 155 -45 676 -193 1380 -511
1935 -873 55 -36 102 -68 105 -71 18 -19 256 -172 302 -194 87 -40 113 -43
129 -15 20 37 17 86 -9 173 -31 102 -90 214 -218 409 -326 497 -695 870 -1158
1172 -63 41 -118 75 -121 75 -4 0 -20 9 -35 20 -27 20 -363 190 -374 190 -3 0
-29 11 -58 24 -136 62 -469 178 -607 212 -9 2 -34 8 -56 14 -76 20 -283 66
-335 75 -19 3 -62 10 -95 16 -33 6 -71 12 -85 14 -43 8 -172 24 -235 30 -33 3
-74 8 -91 10 -30 4 -122 11 -264 20 -403 27 -1881 26 -2265 0 -33 -2 -107 -7
-165 -10 -58 -3 -127 -7 -155 -10 -27 -3 -79 -7 -115 -10 -36 -3 -81 -7 -100
-9 -19 -3 -64 -7 -100 -11 -36 -3 -81 -8 -100 -10 -19 -3 -53 -7 -75 -9 -44
-6 -51 -7 -245 -36 -166 -26 -191 -30 -210 -35 -8 -2 -35 -7 -60 -10 -25 -3
-52 -8 -60 -10 -8 -2 -33 -6 -55 -10 -22 -3 -76 -12 -120 -20 -44 -8 -96 -17
-115 -19 -50 -7 -181 -26 -205 -30 -11 -2 -49 -7 -85 -11 -36 -4 -76 -8 -89
-10 -12 -2 -60 -7 -105 -10 l-81 -6 45 43 c67 64 109 96 228 171 95 59 483
259 677 347 323 148 417 187 720 305 72 28 315 110 405 137 308 92 630 175
790 204 14 2 45 9 70 14 51 11 54 12 240 45 186 32 236 40 320 50 25 3 52 8
60 10 8 2 38 7 65 10 28 3 60 7 72 9 12 3 53 8 90 11 37 4 79 8 93 10 45 7
155 19 275 30 33 4 76 8 95 10 19 3 73 7 120 10 47 4 101 8 120 10 19 2 85 6
145 10 61 4 130 8 154 10 38 3 124 8 391 20 470 22 1590 22 1775 0 17 -2 55
-6 85 -10 30 -3 71 -7 90 -10 19 -3 53 -7 75 -10 23 -3 52 -7 65 -10 14 -3 50
-10 80 -16 30 -5 66 -12 80 -15 192 -35 541 -149 855 -279 39 -16 38 -14 -40
65 -74 76 -142 143 -184 180 -126 110 -217 187 -260 220 -170 128 -235 174
-356 255 -374 248 -766 433 -1156 544 -119 35 -200 53 -359 80 -120 22 -295
42 -485 56 -49 4 -106 9 -125 10 -223 21 -829 21 -1080 0 -25 -2 -79 -6 -120
-10 -41 -3 -91 -7 -110 -10 -19 -2 -64 -7 -100 -10 -36 -3 -76 -8 -90 -10 -28
-5 -83 -12 -150 -20 -153 -18 -513 -88 -730 -142 -305 -75 -762 -226 -975
-323 -11 -5 -72 -32 -135 -61 -109 -49 -314 -152 -390 -197 -19 -11 -56 -32
-81 -46 -93 -50 -326 -202 -554 -360 -127 -88 -450 -346 -610 -486 -266 -234
-333 -298 -637 -602 -153 -153 -291 -284 -308 -293 -30 -15 -30 -15 -41 12
-11 27 -7 143 6 207 21 105 130 496 152 546 3 8 7 20 9 25 7 27 107 305 149
410 451 1153 1883 2428 3176 2829 268 83 657 164 909 191 30 3 69 8 85 10 104
15 300 30 550 42 299 14 993 6 1106 -12 13 -2 56 -6 94 -10 117 -11 336 -44
450 -69 295 -64 811 -227 1022 -322 17 -8 35 -14 40 -14 4 0 20 -7 36 -14 52
-28 26 1 -89 100 -64 54 -122 104 -128 109 -39 37 -281 220 -381 288 -305 209
-680 383 -975 452 -8 2 -46 11 -85 20 -96 23 -97 23 -211 45 -55 10 -127 21
-160 25 -32 4 -66 8 -74 10 -8 2 -44 6 -80 10 -36 3 -87 8 -115 12 -252 29
-1042 35 -1250 8 -16 -2 -64 -6 -105 -10 -41 -3 -88 -7 -105 -9 -16 -2 -57 -7
-90 -10 -33 -4 -71 -9 -85 -11 -14 -3 -45 -7 -70 -10 -37 -4 -217 -34 -305
-50 -11 -2 -83 -17 -160 -35 -77 -17 -151 -33 -165 -36 -142 -28 -624 -185
-765 -249 -16 -8 -59 -26 -95 -40 -95 -38 -390 -187 -500 -252 -83 -49 -285
-181 -375 -246 -105 -76 -260 -212 -391 -342 -137 -136 -208 -213 -384 -415
-105 -119 -306 -387 -452 -600 -121 -177 -146 -212 -192 -266 -41 -47 -52 -54
-83 -54 -20 0 -45 -7 -54 -16 -18 -16 -17 -17 6 -36 14 -11 25 -27 25 -37 0
-21 -63 -118 -113 -175 l-34 -38 -71 85 c-40 46 -72 88 -72 91 0 4 42 27 93
51 51 25 96 47 99 50 3 3 -3 33 -14 65 l-20 59 22 46 c41 86 202 380 216 396
8 8 14 19 14 22 0 13 170 279 263 412 117 167 227 308 370 470 128 145 353
358 542 514 65 53 255 191 263 191 6 0 12 3 14 8 9 23 246 164 524 313 44 23
84 45 89 49 6 5 30 19 55 33 289 158 366 201 370 205 11 10 -121 -11 -220 -35
-148 -35 -425 -135 -635 -228 -297 -132 -692 -368 -905 -542 -8 -6 -42 -34
-75 -60 -135 -109 -330 -301 -440 -434 -158 -191 -288 -414 -385 -660 -10 -26
-28 -66 -39 -90 -10 -24 -29 -66 -40 -93 -12 -27 -23 -47 -25 -45 -2 2 -31 67
-66 144 -74 168 -153 320 -216 418 -42 65 -173 245 -199 273 -5 6 -30 36 -55
65 -46 56 -234 247 -305 309 -170 151 -386 307 -605 436 -410 242 -936 455
-1260 509 -19 3 -60 10 -90 15 -59 10 -102 16 -190 25 -30 3 -66 8 -80 10 -17
3 -10 -3 20 -19z"/>
<path d="M15168 28565 c-2 -2 -46 -7 -98 -10 -105 -6 -166 -11 -315 -26 -164
-16 -187 -19 -245 -29 -30 -5 -73 -11 -95 -14 -22 -3 -103 -17 -180 -31 -307
-56 -699 -165 -950 -265 -11 -4 -51 -20 -90 -35 -148 -59 -300 -129 -459 -212
-65 -35 -123 -63 -127 -63 -5 0 -9 -4 -9 -10 0 -5 -4 -10 -9 -10 -15 0 -355
-204 -446 -268 -44 -31 -100 -75 -125 -99 -52 -50 -47 -49 95 17 50 23 117 54
150 70 33 15 96 44 140 65 222 103 450 192 655 256 83 26 337 94 395 105 11 2
54 10 95 18 80 16 95 19 240 42 107 17 142 21 220 30 30 3 66 7 80 9 14 2 61
7 105 10 44 3 91 8 105 10 14 2 74 7 134 11 60 3 136 8 170 10 89 5 527 17
621 17 108 0 626 -13 750 -18 55 -3 159 -7 230 -10 129 -5 230 -11 355 -20
258 -20 342 -27 360 -30 8 -2 49 -6 90 -9 41 -4 86 -9 100 -11 14 -2 50 -7 80
-10 30 -4 111 -15 180 -25 69 -10 148 -22 175 -25 28 -4 59 -9 70 -11 11 -2
34 -7 50 -9 229 -41 496 -105 710 -170 72 -22 188 -56 240 -71 11 -3 -8 12
-42 35 -34 23 -64 41 -67 41 -3 0 -24 13 -48 29 -24 16 -88 53 -143 81 -55 29
-109 58 -121 65 -84 52 -505 222 -699 282 -44 13 -98 31 -120 38 -72 24 -409
107 -530 129 -187 36 -400 69 -520 81 -33 4 -73 8 -90 11 -16 2 -70 6 -120 10
-49 3 -106 8 -125 11 -42 6 -816 14 -822 8z"/>
<path d="M27104 26992 c6 -10 76 -36 126 -47 117 -24 119 -25 485 -170 149
-59 329 -138 402 -175 272 -142 529 -324 818 -580 57 -51 430 -423 500 -500
133 -146 153 -168 216 -240 64 -75 150 -200 289 -420 77 -123 178 -256 230
-305 l31 -30 -36 100 c-44 124 -126 279 -285 545 -151 251 -202 328 -298 450
-77 96 -322 347 -422 432 -289 244 -532 405 -846 561 -239 120 -364 168 -570
223 -74 19 -185 53 -247 75 -62 22 -143 49 -182 60 -84 23 -221 37 -211 21z"/>
<path d="M15590 25073 c-30 -7 -71 -16 -90 -19 -19 -3 -39 -7 -45 -9 -10 -2
-79 -15 -105 -20 -147 -28 -353 -73 -456 -101 -135 -35 -448 -129 -465 -139
-5 -4 -17 -8 -26 -10 -47 -9 -566 -197 -640 -230 -17 -8 -33 -15 -36 -15 -8 0
-354 -148 -437 -187 -41 -20 -104 -49 -140 -65 -175 -80 -531 -267 -682 -357
-15 -9 -66 -39 -115 -68 -129 -76 -411 -263 -543 -361 -361 -267 -664 -568
-863 -857 -167 -243 -289 -494 -331 -683 -3 -13 -7 -31 -10 -40 -11 -36 -42
-231 -51 -317 -3 -33 -8 -76 -10 -95 -23 -202 -27 -267 -17 -274 14 -9 61 69
132 219 80 167 157 321 185 365 12 19 25 42 29 50 9 21 21 40 96 158 36 57 70
111 75 120 113 186 385 559 524 718 141 161 193 216 326 349 518 519 1058 893
1770 1227 165 77 232 105 360 148 103 35 254 91 300 111 26 11 436 148 461
154 11 2 79 23 153 45 74 22 144 42 155 45 12 2 55 13 96 23 41 11 94 22 118
26 140 19 302 49 337 62 22 8 48 17 58 21 9 3 17 9 17 13 0 11 -69 8 -130 -7z"/>
<path d="M25030 24864 c-168 -64 -224 -124 -222 -239 1 -33 8 -82 15 -109 12
-45 18 -52 72 -82 71 -40 191 -69 435 -105 87 -13 85 -12 210 -33 52 -9 106
-18 120 -21 14 -3 50 -9 80 -15 71 -13 100 -19 125 -24 11 -3 54 -12 95 -21
557 -119 1263 -393 1845 -718 50 -28 99 -55 110 -61 39 -22 170 -99 205 -121
166 -105 296 -190 300 -194 3 -3 45 -33 95 -66 80 -54 329 -236 380 -277 11
-9 73 -59 138 -111 65 -53 148 -121 185 -154 109 -95 176 -155 193 -172 9 -9
65 -64 125 -122 374 -367 579 -640 791 -1059 52 -102 99 -185 106 -185 14 0
17 392 5 505 -40 351 -175 712 -392 1045 -174 269 -432 555 -701 780 -33 28
-62 53 -65 56 -3 3 -53 42 -113 87 -427 324 -978 616 -1612 854 -655 246
-1465 469 -1935 533 -25 4 -58 8 -75 11 -112 15 -486 29 -515 18z"/>
<path d="M23038 24280 c-308 -57 -510 -221 -583 -475 -19 -64 -16 -178 6 -246
20 -63 104 -164 201 -244 170 -140 220 -187 206 -196 -14 -9 -20 -5 -143 79
-43 28 -81 52 -84 52 -3 -1 -42 -13 -86 -28 -77 -27 -80 -29 -83 -61 -3 -29
-10 -36 -58 -58 -43 -19 -66 -24 -105 -21 -44 4 -52 2 -70 -21 -17 -21 -20
-38 -18 -95 1 -39 6 -88 10 -110 4 -23 10 -63 13 -91 21 -159 59 -319 121
-505 8 -25 17 -74 20 -110 3 -36 11 -83 17 -105 6 -22 12 -44 14 -50 4 -18 46
-139 59 -170 7 -16 26 -66 43 -110 17 -44 33 -89 38 -100 4 -11 8 -22 9 -25 0
-3 5 -16 9 -30 4 -14 28 -90 53 -170 25 -80 57 -183 72 -230 16 -47 45 -140
66 -207 21 -68 42 -123 47 -123 5 0 7 -4 4 -9 -5 -8 43 -170 64 -216 5 -11 13
-36 19 -55 5 -19 39 -120 76 -225 37 -104 74 -210 82 -235 9 -25 19 -49 23
-55 4 -5 10 -23 14 -40 4 -16 13 -43 21 -60 7 -16 54 -135 105 -264 50 -128
106 -263 122 -300 17 -36 32 -71 34 -78 1 -7 18 -46 38 -87 20 -41 36 -76 36
-79 0 -22 228 -479 307 -617 72 -124 203 -320 214 -320 5 0 9 -4 9 -10 0 -12
48 -82 63 -92 7 -4 8 -8 4 -8 -9 0 112 -160 147 -196 12 -11 32 -35 45 -52 13
-17 28 -29 34 -25 5 3 7 2 4 -3 -9 -15 70 -97 84 -88 8 5 10 3 4 -6 -5 -8 25
-43 90 -106 53 -52 99 -94 101 -94 2 0 22 -20 46 -44 23 -25 45 -43 49 -40 4
2 10 -4 13 -13 3 -10 17 -25 30 -33 56 -35 112 -74 124 -87 20 -20 167 -114
232 -150 151 -82 325 -122 413 -97 34 10 81 140 94 260 7 72 9 268 3 459 -3
96 1 160 16 280 23 183 23 844 0 975 -3 14 -7 57 -11 95 -3 39 -7 81 -10 95
-2 14 -7 47 -10 74 -14 117 -78 457 -90 476 -2 3 -6 18 -9 32 -20 111 -225
740 -285 873 -5 11 -41 101 -79 200 -125 320 -321 739 -471 1010 -28 50 -54
97 -58 105 -21 44 -188 314 -276 445 -83 126 -257 365 -319 440 -220 268 -343
399 -573 610 -104 95 -215 219 -215 238 0 10 15 7 150 -30 164 -45 359 -128
541 -231 105 -59 313 -212 459 -337 46 -39 458 -451 535 -535 33 -36 103 -112
155 -169 52 -58 104 -114 115 -126 71 -75 384 -444 487 -575 277 -351 545
-744 710 -1040 14 -25 35 -63 48 -85 46 -81 189 -373 240 -490 196 -451 388
-1080 474 -1550 24 -126 64 -383 72 -460 4 -33 8 -69 10 -79 2 -10 6 -51 9
-90 3 -39 8 -82 10 -96 2 -14 7 -56 10 -95 3 -38 7 -86 10 -105 2 -19 7 -62
10 -95 7 -73 23 -201 29 -235 2 -14 7 -44 10 -67 6 -47 8 -55 37 -181 25 -106
18 -104 129 -46 397 208 737 767 820 1352 31 223 35 675 5 830 -1 9 -6 42 -9
73 -4 31 -9 67 -11 80 -3 13 -8 38 -10 54 -3 17 -8 37 -10 45 -2 8 -6 32 -10
53 -7 51 -61 264 -87 347 -70 220 -94 287 -169 463 -61 142 -239 499 -264 527
-8 8 -18 26 -24 40 -6 14 -20 39 -31 55 -11 17 -26 42 -34 57 -36 61 -214 320
-299 430 -232 304 -443 546 -687 788 -198 196 -222 219 -395 375 -60 55 -115
104 -121 110 -6 5 -33 28 -59 50 -27 22 -53 45 -59 50 -205 189 -797 642
-1111 849 -55 36 -104 69 -110 74 -14 11 -319 193 -387 231 -320 176 -676 317
-883 347 -16 3 -41 7 -55 11 -61 14 -287 10 -382 -7z m932 -5834 c0 -3 -4 -8
-10 -11 -5 -3 -10 -1 -10 4 0 6 5 11 10 11 6 0 10 -2 10 -4z"/>
<path d="M17430 24265 c-183 -31 -188 -32 -300 -60 -231 -59 -496 -162 -765
-297 -66 -33 -258 -136 -290 -155 -11 -7 -29 -17 -40 -22 -147 -75 -545 -336
-785 -514 -145 -108 -438 -342 -460 -368 -3 -3 -43 -39 -90 -80 -122 -107
-204 -184 -380 -359 -314 -314 -467 -487 -713 -805 -4 -5 -21 -28 -37 -50 -16
-22 -34 -45 -38 -50 -29 -35 -231 -350 -289 -450 -93 -160 -208 -392 -272
-545 -29 -69 -56 -134 -61 -145 -54 -124 -169 -520 -195 -670 -57 -335 -60
-368 -60 -675 0 -218 5 -315 21 -415 73 -464 224 -844 463 -1165 69 -94 96
-124 196 -225 166 -166 251 -224 361 -244 43 -8 45 -8 61 23 19 35 20 104 8
296 -15 225 -10 640 10 870 12 146 17 195 20 209 2 15 10 67 20 146 2 17 6 44
9 60 3 17 8 49 11 73 3 24 7 53 10 65 7 32 15 77 21 116 2 19 6 37 9 41 2 4 7
22 10 41 3 19 13 63 21 99 9 36 17 74 20 85 3 17 51 194 86 320 15 53 129 383
161 465 95 246 241 558 354 759 29 51 53 95 53 97 0 15 274 444 353 553 37 51
46 59 56 47 14 -17 0 -52 -63 -153 -36 -59 -38 -65 -31 -120 17 -151 27 -187
73 -272 32 -58 35 -73 38 -156 2 -50 8 -104 14 -119 l11 -29 19 21 c10 11 34
25 52 31 l33 11 -1 73 c-2 77 -16 138 -38 156 -7 6 -30 13 -52 17 -45 7 -62
25 -34 36 30 11 24 39 -15 81 -19 20 -35 42 -35 48 0 11 38 45 102 92 21 15
37 31 34 35 -2 4 0 30 5 57 18 94 19 105 2 105 -12 0 -14 7 -9 31 3 17 6 35 6
40 0 5 14 16 30 24 29 15 32 15 58 -5 l27 -22 22 29 c22 27 41 89 31 99 -3 2
-18 0 -33 -6 -26 -10 -27 -10 -20 17 5 16 9 51 10 78 2 28 3 52 4 55 1 3 13 5
29 6 15 1 39 4 54 8 24 7 28 5 33 -21 4 -15 9 -34 11 -41 8 -27 29 -4 50 52
12 33 33 69 50 85 55 47 54 87 0 46 -21 -16 -39 -22 -54 -19 -18 5 -21 12 -18
44 5 53 13 62 49 58 26 -2 32 1 32 17 0 13 8 21 23 23 18 3 22 -1 22 -21 0
-14 7 -30 15 -37 12 -10 25 -2 76 46 33 33 70 63 82 67 26 10 47 2 47 -18 0
-8 5 -15 10 -15 12 0 12 -46 1 -75 -5 -11 -5 -25 0 -31 6 -7 -7 -33 -36 -73
-58 -78 -83 -127 -91 -171 -3 -19 -15 -53 -25 -76 -10 -22 -19 -47 -19 -55 0
-8 -16 -41 -35 -73 -19 -32 -35 -62 -35 -67 0 -4 -9 -10 -20 -14 -16 -5 -80
-105 -80 -126 0 -4 20 -10 45 -13 41 -7 45 -10 45 -36 0 -20 6 -31 19 -35 11
-3 33 -21 50 -40 17 -19 38 -35 47 -35 13 0 15 -6 10 -32 -4 -18 -10 -44 -12
-57 -3 -14 -21 -42 -40 -63 -27 -30 -34 -47 -34 -77 0 -33 -5 -43 -31 -61
l-30 -22 21 -23 c29 -31 23 -52 -23 -78 -35 -20 -39 -20 -64 -5 -23 14 -29 14
-49 2 l-21 -15 32 -32 c62 -62 61 -61 97 -36 18 12 46 34 61 48 24 22 29 23
37 11 14 -22 14 -22 -31 -175 -22 -77 -42 -149 -44 -159 -3 -11 -11 -40 -19
-65 -32 -96 -108 -438 -122 -541 -2 -19 -6 -46 -9 -60 -6 -33 -12 -74 -20
-130 -3 -25 -8 -61 -11 -80 -2 -19 -6 -53 -8 -75 -8 -82 -19 -191 -22 -220 -1
-16 -5 -79 -9 -140 -4 -60 -8 -128 -10 -150 -26 -326 -23 -619 5 -726 14 -52
18 -88 25 -229 16 -346 17 -358 42 -455 34 -136 97 -229 182 -267 106 -48 234
-13 458 126 267 165 689 584 903 896 13 19 27 37 30 40 19 14 249 376 318 500
265 471 483 939 702 1505 90 233 214 578 259 720 12 39 60 187 106 330 46 143
118 368 160 500 42 132 103 317 135 411 153 451 209 756 171 926 -21 93 -71
160 -164 217 -40 24 -169 70 -255 91 l-53 12 57 57 c152 151 192 281 134 434
-36 95 -71 148 -150 228 -73 74 -150 126 -240 163 -25 10 -54 22 -65 27 -21 9
-116 33 -175 44 -66 13 -333 13 -410 0z m124 -612 c-3 -16 -17 -46 -32 -68
-25 -36 -207 -238 -297 -330 -22 -22 -80 -88 -130 -145 -49 -58 -92 -107 -95
-110 -3 -3 -28 -32 -55 -65 -28 -33 -52 -62 -55 -65 -3 -3 -21 -25 -40 -50
-19 -25 -40 -52 -47 -60 -151 -188 -390 -523 -410 -576 -4 -11 -9 -12 -19 -3
-22 18 -17 39 26 109 43 70 50 115 26 162 -12 24 -12 29 5 46 10 11 27 23 39
27 14 4 20 15 20 34 0 31 30 66 37 44 3 -7 11 -13 20 -13 10 0 14 9 11 29 -2
23 5 37 33 64 19 19 45 38 57 41 18 6 20 11 12 31 -7 20 -6 25 11 30 25 8 39
42 32 78 -6 31 -4 31 -107 -12 -53 -22 -74 -37 -91 -65 -12 -20 -41 -50 -66
-67 -24 -18 -64 -50 -89 -71 -24 -22 -92 -64 -150 -93 -58 -30 -134 -74 -170
-98 -75 -50 -92 -58 -140 -63 -43 -5 -66 7 -54 29 33 58 332 370 486 507 26
23 62 55 80 71 65 59 295 237 389 302 267 184 646 376 746 377 18 0 21 -4 17
-27z"/>
<path d="M15945 24202 c-73 -7 -568 -182 -865 -305 -86 -35 -130 -54 -310
-135 -78 -35 -393 -192 -465 -232 -152 -84 -282 -161 -427 -252 -131 -82 -223
-144 -532 -358 -152 -105 -573 -431 -761 -589 -371 -311 -763 -708 -901 -913
-65 -96 -73 -113 -88 -178 -20 -86 -41 -121 -157 -265 -152 -189 -287 -488
-334 -740 -9 -49 -20 -110 -25 -135 -10 -49 -6 -433 4 -490 49 -269 105 -451
200 -654 20 -42 36 -82 36 -88 0 -8 3 -9 10 -2 5 5 10 32 11 59 2 49 -10 255
-16 265 -2 3 -6 39 -10 80 -4 41 -9 84 -11 95 -24 128 -24 516 1 644 2 12 7
43 9 67 3 24 8 54 10 66 3 13 8 41 11 63 27 195 126 516 215 700 81 168 100
217 111 289 13 78 37 129 103 216 107 142 365 406 611 623 44 39 82 73 85 76
3 3 52 46 110 96 58 49 107 92 110 95 11 11 250 210 345 286 203 163 497 377
685 500 41 27 79 52 85 57 39 29 453 279 510 307 17 8 32 17 35 20 7 7 32 21
221 119 244 126 483 234 889 401 69 28 220 82 335 121 116 38 216 73 223 78
17 10 -18 18 -63 13z"/>
<path d="M25327 23980 c4 -5 24 -17 43 -28 19 -10 129 -74 243 -141 114 -66
212 -121 217 -121 6 0 10 -4 10 -10 0 -5 4 -10 9 -10 6 0 99 -52 208 -116 109
-64 214 -125 233 -136 193 -110 656 -397 778 -483 139 -97 405 -299 502 -381
216 -183 267 -228 454 -397 269 -245 756 -731 841 -842 38 -49 72 -92 75 -95
18 -17 185 -246 219 -302 59 -97 142 -260 184 -358 76 -180 155 -458 181 -640
2 -8 6 -33 10 -55 7 -42 10 -68 23 -205 10 -105 10 -455 0 -570 -4 -47 -9
-132 -12 -190 l-5 -105 46 95 c109 224 145 309 183 440 72 240 83 489 35 750
-16 85 -80 293 -110 360 -65 140 -117 227 -213 355 -57 76 -311 328 -423 420
-81 66 -86 73 -98 125 -7 30 -19 82 -27 115 -23 101 -60 163 -148 250 -166
164 -246 232 -755 640 -578 464 -772 594 -1680 1123 -52 30 -205 121 -340 202
-264 159 -384 223 -498 264 -81 29 -198 58 -185 46z"/>
</g>
</svg>
