<?xml version="1.0" encoding="utf-8" ?>
<svg xmlns="http://www.w3.org/2000/svg" xmlns:xlink="http://www.w3.org/1999/xlink" width="4096" height="3767">
	<path fill="#C77586" transform="scale(5.33355 4.90597)" d="M539.593 358.703C542.441 361.363 542.446 363.832 543.172 367.356L541.036 366.59C539.606 364.469 537.704 362.594 535.982 360.7C536.229 360.06 536.429 359.579 536.812 359.003C537.629 359.062 538.475 359.202 539.254 358.89L539.593 358.703Z"/>
	<path fill="#C77586" transform="scale(5.33355 4.90597)" d="M504.115 560.322L529.125 561.301L529.312 561.609C526.014 562.37 522.087 561.963 518.694 562.029L496.22 562.308L496.626 561.468C498.493 560.224 501.853 560.472 504.115 560.322Z"/>
	<path fill="#C77586" transform="scale(5.33355 4.90597)" d="M280.808 366.065L286.704 357.188C286.807 358.12 286.752 358.659 286.46 359.55C284.219 361.749 284.888 363.038 284.256 365.873L283.125 366.498C283.008 367.038 282.938 367.443 282.938 368.001L283.406 368.187C283.425 368.692 283.473 369.046 283.271 369.519C283.001 370.149 283.052 370.878 283.031 371.557C282.434 372.18 281.905 372.527 281.25 373.059L280.5 373.809C280.674 374.504 280.593 374.44 281.139 374.986C281.581 375.428 281.734 375.586 281.906 376.152L281.625 376.617L280.969 376.715L281.441 377.371C282.306 377.274 282.358 377.32 283.125 377.746C283.724 379.03 283.866 379.939 283.688 381.307C283.641 381.664 283.734 382.076 283.781 382.43L283.125 382.616C282.514 382.801 282.238 383.097 281.812 383.557C281.091 382.749 281.499 380.239 281.278 379.058C281.117 378.2 280.618 377.463 280.238 376.695C279.421 375.042 279.381 372.541 279.128 370.721C279.983 369.351 280.784 368.125 281.241 366.558L280.808 366.065Z"/>
	<path fill="#C77586" transform="scale(5.33355 4.90597)" d="M380.746 197.082L381.188 198.584L383.109 198.8L384.133 198.647C385.677 200.289 387.518 201.247 388.983 203.027L388.695 203.776C388.518 204.343 388.478 204.869 388.085 205.342C387.388 206.183 386.235 206.997 385.12 207.103C384.156 207.194 383.292 207.645 382.312 207.697C380.623 207.787 379.592 206.86 378.488 205.8C377.915 202.663 379.26 200.228 380.692 197.569L380.746 197.082ZM380.746 197.082L380.692 197.569L380.599 198.052C380.279 199.649 379.846 201.047 379.244 202.567C379.997 203.718 380.783 205.397 382.125 205.871C382.926 205.468 383.456 205.351 383.809 204.455C384.334 203.124 383.942 201.205 384.153 199.755L383.109 198.8L381.188 198.584L380.746 197.082Z"/>
	<path fill="#C77586" transform="scale(5.33355 4.90597)" d="M380.746 197.082L381.188 198.584L383.109 198.8L384.153 199.755C383.942 201.205 384.334 203.124 383.809 204.455C383.456 205.351 382.926 205.468 382.125 205.871C380.783 205.397 379.997 203.718 379.244 202.567C379.846 201.047 380.279 199.649 380.599 198.052L380.692 197.569L380.746 197.082Z"/>
	<path fill="#C77586" transform="scale(5.33355 4.90597)" d="M477.376 433.393C478.46 433.981 478.637 435.07 478.953 436.235C479.072 436.673 479.104 437.106 479.141 437.555C479.226 441.866 480.132 450.334 477.544 453.857C474.163 454.479 470.681 452.633 467.938 450.753C466.806 449.977 465.651 449.146 464.654 448.202L465.158 447.919C465.795 447.654 466.752 447.832 467.351 448.105C469.662 449.158 473.248 450.354 475.76 449.772C476.663 449.021 476.748 448.008 476.995 446.92C476.74 446.567 476.733 445.281 476.673 444.796L477.376 433.393Z"/>
	<defs>
		<linearGradient id="gradient_0" gradientUnits="userSpaceOnUse" x1="297.21899" y1="345.81" x2="298.00699" y2="346.82199">
			<stop offset="0" stop-color="#C77586"/>
			<stop offset="1" stop-color="#C77586"/>
		</linearGradient>
	</defs>
	<path fill="url(#gradient_0)" transform="scale(5.33355 4.90597)" d="M309.06 337.495C308.515 338.83 307.33 339.865 306.99 341.206C306.552 342.937 304.969 344.459 303.771 345.83C303.336 346.327 303.012 346.832 302.656 347.387C301.136 348.088 299.271 348.949 298.482 350.563L298.312 351.293C297.844 352.419 295.681 353.698 294.844 354.766C294.304 354.675 294.137 354.729 293.625 354.875L293.273 355.32C292.699 356.038 292.025 356.662 291.375 357.312L290.816 356.937L290.812 355.812L289.875 355.999L290.059 356.749C289.504 356.811 289.358 356.913 288.844 356.656C288.252 357.485 288.4 357.684 288.469 358.718L289.125 359.003C289.586 358.638 290.021 358.294 290.438 357.878L290.531 358.718C290.245 359.004 289.241 359.81 289.125 360.124C288.706 361.262 289.055 361.403 288.188 362.561C287.4 361.765 288.318 361.364 287.344 360.78L287.092 360.915C286.561 361.142 286.035 361.126 285.469 361.155C285.449 362.161 285.606 363.451 285.094 364.342C285.765 364.267 285.809 364.38 286.312 363.877C286.405 364.703 286.333 364.942 286.008 365.701C285.822 366.135 285.526 366.373 285.188 366.685L284.256 365.873C284.888 363.038 284.219 361.749 286.46 359.55C286.752 358.659 286.807 358.12 286.704 357.188L286.69 357.164C289.41 352.806 292.927 347.963 296.688 344.448L297.346 344.865C298.238 344.844 298.975 344.792 299.669 344.174C300.937 343.043 303.312 341.704 304.845 340.932C305.536 340.583 305.903 340.357 306.433 339.771C307.23 338.891 308.119 338.212 309.06 337.495Z"/>
	<path fill="#C77586" transform="scale(5.33355 4.90597)" d="M535.982 360.7C528.182 352.208 519.876 343.731 510.925 336.443C505.106 331.705 498.422 327.495 492.13 323.432L474.481 312.29C480.531 313.366 485.799 317.702 490.875 320.923C499.021 326.093 507.266 331.139 514.975 336.963C519.431 340.33 523.554 344.092 527.763 347.754C531.821 351.285 535.921 354.764 539.593 358.703L539.254 358.89C538.475 359.202 537.629 359.062 536.812 359.003C536.429 359.579 536.229 360.06 535.982 360.7Z"/>
	<path fill="#C77586" transform="scale(5.33355 4.90597)" d="M507.871 251.018C510.997 250.473 514.92 252.624 517.788 253.597C519.465 254.166 521.217 254.465 522.884 255.083C526.498 256.42 530.433 258.43 533.748 260.391C541.445 264.943 549.408 271.977 554.778 279.199C557.104 282.328 558.865 285.799 560.754 289.191C562.86 292.973 565.115 297.129 566.218 301.333C561.979 297.1 559.723 290.584 555.835 285.839C546.878 274.907 536.718 263.354 523.688 257.244L513.091 252.709C511.427 252.076 509.705 252.025 508.128 251.165L507.871 251.018Z"/>
	<path fill="#C77586" transform="scale(5.33355 4.90597)" d="M541.036 366.59L543.172 367.356L543.231 367.381C548.632 372.268 553.77 377.261 556.529 384.14C559.576 391.74 560.338 399.745 558.074 407.67C557.046 411.267 555.367 414.732 553.888 418.165C553.866 414.564 554.358 411.022 554.393 407.412C554.5 396.078 552.377 384.982 546.787 375.006C545.139 372.066 542.981 369.344 541.036 366.59Z"/>
	<path fill="#C77586" transform="scale(5.33355 4.90597)" d="M419.625 349.508C422.009 352.182 422.111 355.021 423.29 358.249C424.861 362.552 426.74 366.975 428.055 371.354C428.569 373.063 428.558 374.94 429.154 376.624C429.639 377.995 430.716 379.294 431.502 380.524C432.557 382.178 433.456 384.028 434.177 385.853C435.281 388.645 435.599 391.637 436.586 394.461C437.584 397.316 439.157 399.91 440.344 402.679C442.195 406.993 443.608 411.434 445.62 415.712L447.153 419.918C447.182 421.075 447.138 422.034 447.566 423.113L447.752 423.673C448.204 424.812 448.981 425.712 449.441 426.862L449.658 427.344C449.977 428.302 449.942 429.815 449.447 430.69C445.561 425.062 442.777 418.784 440.117 412.51C433.115 395.99 428.114 378.943 423.212 361.709C422.104 357.815 419.96 353.538 419.625 349.508Z"/>
	<path fill="#C77586" transform="scale(5.33355 4.90597)" d="M309.06 337.495L309.348 336.993C309.7 336.37 309.589 336.631 309.768 336.11L312.981 334.669C313.363 335.484 313.275 335.588 313.092 336.485C312.584 336.943 312.883 336.809 312.191 336.878L312.499 338.003L311.627 338.192L311.497 338.479C311.205 338.987 310.793 339.195 310.316 339.502L310.441 339.946C310.593 340.532 310.58 340.293 310.502 340.817L310.082 340.835L309.75 340.348L309.191 340.815L309.188 341.939C308.342 342.28 308.248 342.322 307.727 343.064C308.228 344.063 308.5 344.824 308.062 345.95C307.855 346.484 307.705 346.538 307.409 347.001C307.026 347.599 306.808 348.113 306.712 348.812L307.143 349.357C300.715 360.534 295.994 371.601 291.978 383.824L291.592 382.856C290.933 383.623 290.15 384.23 289.371 384.869C288.432 384.407 288.318 383.699 287.441 382.995L288.375 382.432L289.219 383.088C289.925 382.853 290.348 382.439 290.906 381.964C290.747 381.54 290.604 381.261 290.328 380.892L290.066 380.558C291.995 379.264 290.719 379.495 291.375 377.746C291.503 377.403 292.251 377.061 292.406 376.715C292.794 375.849 292.4 375.3 293.062 374.367L292.127 374.182C291.881 373.44 291.631 373.325 291 372.868L290.441 372.497L290.441 371.372L290.156 371.465C289.57 371.23 289.815 371.297 289.191 371.173L288.752 371.091C288.752 370.632 288.711 370.875 288.999 370.301L289.877 368.562L290.438 368.376C290.825 367.361 291.65 366.5 291.858 365.467C291.958 364.971 292.061 364.509 292.316 364.061L292.687 363.502C292.656 362.099 293.129 361.138 293.897 359.989L295.312 357.878L294.941 357.312C295.428 356.579 295.313 356.467 295.316 355.625L294.828 355.325L294.844 354.766C295.681 353.698 297.844 352.419 298.312 351.293L298.482 350.563C299.271 348.949 301.136 348.088 302.656 347.387C303.012 346.832 303.336 346.327 303.771 345.83C304.969 344.459 306.552 342.937 306.99 341.206C307.33 339.865 308.515 338.83 309.06 337.495Z"/>
	<path fill="#C77586" transform="scale(5.33355 4.90597)" d="M445.62 415.712C446.429 416.661 447.242 417.566 447.893 418.634C448.279 419.268 448.588 419.373 449.23 419.735C452.112 421.358 454.516 425.384 456.62 427.905C458.498 430.156 460.675 432.321 462.727 434.416C464.528 436.255 466.948 437.282 468.829 438.989C471.047 441 472.177 443.246 475.125 444.469C475.904 444.793 475.83 445.011 476.673 444.796C476.733 445.281 476.74 446.567 476.995 446.92C476.748 448.008 476.663 449.021 475.76 449.772C473.248 450.354 469.662 449.158 467.351 448.105C466.752 447.832 465.795 447.654 465.158 447.919L464.654 448.202C463.36 447.572 461.794 445.807 460.766 444.791C456.472 440.546 452.552 435.883 449.447 430.69C449.942 429.815 449.977 428.302 449.658 427.344L449.441 426.862C448.981 425.712 448.204 424.812 447.752 423.673L447.566 423.113C447.138 422.034 447.182 421.075 447.153 419.918L445.62 415.712ZM447.153 419.918C447.182 421.075 447.138 422.034 447.566 423.113L447.752 423.673C448.204 424.812 448.981 425.712 449.441 426.862L449.658 427.344C449.977 428.302 449.942 429.815 449.447 430.69C452.552 435.883 456.472 440.546 460.766 444.791C461.794 445.807 463.36 447.572 464.654 448.202L465.158 447.919C465.795 447.654 466.752 447.832 467.351 448.105C469.662 449.158 473.248 450.354 475.76 449.772C476.663 449.021 476.748 448.008 476.995 446.92L476.075 448.187C475.222 449.005 474.079 449.132 472.949 448.995C469.668 448.596 466.072 445.121 463.508 443.127C462.111 442.041 460.52 441.094 459.368 439.74C459 439.308 458.728 438.99 458.263 438.652C457.3 437.953 456.854 437.57 456.3 436.487C455.971 435.844 455.724 435.337 455.241 434.789C453.991 433.371 453.724 432.419 452.889 430.801C452.353 429.764 451.351 428.988 450.81 427.942C450.362 427.074 450.202 426.052 449.812 425.15C449.043 423.369 447.925 421.745 447.153 419.918Z"/>
	<path fill="#C77586" transform="scale(5.33355 4.90597)" d="M447.153 419.918C447.925 421.745 449.043 423.369 449.812 425.15C450.202 426.052 450.362 427.074 450.81 427.942C451.351 428.988 452.353 429.764 452.889 430.801C453.724 432.419 453.991 433.371 455.241 434.789C455.724 435.337 455.971 435.844 456.3 436.487C456.854 437.57 457.3 437.953 458.263 438.652C458.728 438.99 459 439.308 459.368 439.74C460.52 441.094 462.111 442.041 463.508 443.127C466.072 445.121 469.668 448.596 472.949 448.995C474.079 449.132 475.222 449.005 476.075 448.187L476.995 446.92C476.748 448.008 476.663 449.021 475.76 449.772C473.248 450.354 469.662 449.158 467.351 448.105C466.752 447.832 465.795 447.654 465.158 447.919L464.654 448.202C463.36 447.572 461.794 445.807 460.766 444.791C456.472 440.546 452.552 435.883 449.447 430.69C449.942 429.815 449.977 428.302 449.658 427.344L449.441 426.862C448.981 425.712 448.204 424.812 447.752 423.673L447.566 423.113C447.138 422.034 447.182 421.075 447.153 419.918Z"/>
	<path fill="#C77586" transform="scale(5.33355 4.90597)" d="M387.314 560.616C390.75 561.34 395.409 560.439 398.971 560.253L415.05 559.779L504.115 560.322C501.853 560.472 498.493 560.224 496.626 561.468L496.22 562.308L385.08 563.191C385.887 562.469 387.027 561.683 387.314 560.616Z"/>
	<path fill="#C77586" transform="scale(5.33355 4.90597)" d="M298.385 308.008C299.037 307.897 299.713 307.949 300.373 307.955C299.874 308.557 298.852 308.713 298.125 309.006C295.667 309.998 292.958 310.759 290.586 311.848C284.889 314.462 279.034 317.029 273.582 320.099C261.424 326.944 250.43 335.05 240.16 344.489C236.13 348.193 218.87 363.928 218.706 368.776C218.607 371.701 216.15 375.448 215.22 378.317C212.788 385.82 211.5 393.837 211.504 401.718C211.505 404.545 213.331 415.436 212.438 416.983L211.889 415.614C205.988 402.478 205.737 388.286 213.127 375.664C214.199 373.833 217.008 370.898 217.27 368.935C217.424 367.783 217.606 367.204 218.185 366.164C220.485 362.033 223.482 358.843 226.636 355.361C232.257 349.156 238.402 343.739 244.845 338.414C252.8 331.839 261.191 325.588 270.188 320.491C279.168 315.403 288.644 311.331 298.385 308.008Z"/>
	<path fill="#C77586" transform="scale(5.33355 4.90597)" d="M380.22 223.799L380.242 223.44C380.288 222.95 380.363 222.63 380.215 222.148C379.391 219.467 377.31 216.475 375.802 214.087C368.304 202.213 358.868 191.027 346.671 183.758C339.772 179.647 332.174 177.245 325.015 173.708C330.943 174.273 336.295 175.423 341.812 177.723C356.891 184.008 370.373 193.907 378.512 208.348C380.419 211.731 381.728 215.301 383.196 218.881L383.197 224.21L384.189 224.866L383.441 225.71C382.737 225.309 382.644 225.04 382.089 224.524L381.559 224.114L381.239 223.652L380.22 223.799Z"/>
	<path fill="#C77586" transform="scale(5.33355 4.90597)" d="M383.196 218.881C384.995 214.551 386.396 210.094 388.731 206.002C395.921 193.404 409.941 183.015 423.181 177.57C426.425 176.236 431.516 174.136 435.089 174.075L419.367 183.531C402.566 194.666 392.104 209.793 383.758 227.853C382.753 226.854 382.187 225.373 381.559 224.114L382.089 224.524C382.644 225.04 382.737 225.309 383.441 225.71L384.189 224.866L383.197 224.21L383.196 218.881Z"/>
	<path fill="#C77586" transform="scale(5.33355 4.90597)" d="M293.568 289.903L294.938 289.981C293.022 291.523 288.24 291.626 285.789 292.253C280.064 293.716 274.353 295.82 268.814 297.885C267.039 298.547 265.407 299.441 263.588 300.001C260.5 300.951 257.173 302.792 254.293 304.259C236.417 313.364 220.88 327.958 210.188 344.941C207.321 349.495 204.499 354.227 202.136 359.069C200.734 361.944 199.695 364.928 198.188 367.772L197.509 368.814L197.227 368.185C197.737 363.154 198.004 357.797 199.257 352.904C200.35 348.638 202.367 344.599 204.631 340.845C210.858 330.523 220.646 322.354 230.567 315.756C244.829 306.27 260.802 299.059 277.119 293.826C282.486 292.105 288.108 291.256 293.568 289.903Z"/>
	<defs>
		<linearGradient id="gradient_1" gradientUnits="userSpaceOnUse" x1="415.392" y1="155.08099" x2="371.73999" y2="175.726">
			<stop offset="0" stop-color="#C77586"/>
			<stop offset="1" stop-color="#C77586"/>
		</linearGradient>
	</defs>
	<path fill="url(#gradient_1)" transform="scale(5.33355 4.90597)" d="M380.746 197.082L380.169 184.844C379.525 177.073 377.682 169.315 375.116 161.964C374.205 159.354 373.254 156.676 372.013 154.2C370.727 151.638 369.303 149.557 368.631 146.708C380.262 154.02 384.199 169.749 387.29 182.175C389.13 178.906 390.98 175.374 393.195 172.342C400.274 162.651 409.127 155.924 419.451 150.035L410.18 160.216C403.018 168.547 396.687 177.38 391.742 187.206C390.123 190.424 387.719 197.581 384.133 198.647L383.109 198.8L381.188 198.584L380.746 197.082Z"/>
	<path fill="#C77586" transform="scale(5.33355 4.90597)" d="M283.776 219.13L283.897 219.104C306.057 217.768 331.35 222.609 349.456 235.918C345.162 234.557 340.819 232.973 336.436 231.96C319.41 228.028 302.538 227.51 285.174 227.202C270.6 227.415 255.589 228.308 241.852 233.606C235.828 235.929 230.211 239.015 224.443 241.882L224.958 241.287C227.303 238.699 230.606 236.847 233.498 234.937C248.879 224.776 265.434 220.162 283.776 219.13Z"/>
	<path fill="#C77586" transform="scale(5.33355 4.90597)" d="M469.627 294.351C479.182 293.984 489.523 296.724 498.589 299.51C515.305 304.648 532.949 311.893 546.568 323.058C558.023 332.45 567.806 345.483 570.259 360.427C570.604 362.531 570.899 364.74 570.931 366.873C570.959 368.687 570.683 370.473 570.877 372.284C570.944 372.909 571.014 373.244 570.76 373.842L570.384 373.809L569.624 372.14C567.558 367.4 565.148 362.633 562.126 358.424C556.237 350.222 548.908 342.969 541.182 336.503C526.826 324.488 510.106 314.614 492.128 309.138C486.26 307.351 480.384 306.265 474.349 305.255C472.114 304.882 466.955 304.246 465.591 302.335C465.179 300.844 464.749 298.657 465.497 297.186C466.287 295.632 468.118 294.993 469.627 294.351Z"/>
	<defs>
		<linearGradient id="gradient_2" gradientUnits="userSpaceOnUse" x1="464.92801" y1="346.90302" x2="430.91599" y2="417.08401">
			<stop offset="0" stop-color="#C77586"/>
			<stop offset="1" stop-color="#C77586"/>
		</linearGradient>
	</defs>
	<path fill="url(#gradient_2)" transform="scale(5.33355 4.90597)" d="M419.625 349.508C419.856 348.367 419.205 347.573 418.983 346.452C418.889 345.977 418.838 345.529 418.645 345.079C418.39 344.484 418.297 343.872 418.125 343.252C417.402 340.645 417.206 338.041 416.809 335.378C416.695 334.613 416.612 333.953 416.612 333.172C416.613 331.932 416.442 331.625 417.375 330.691C419.184 330.981 419.797 330.73 421.309 329.754L421.309 328.629C421.988 328.18 421.684 328.299 422.385 328.108C422.96 327.951 422.781 328.035 423.24 327.838L424.5 327.317C425.857 328.151 427.025 329.109 428.252 330.116L429.052 329.974C433.736 333.346 437.647 338.74 441.065 343.342C452.419 358.629 460.793 376.026 466.708 394.089L473.132 416.712L475.67 424.886C476.346 426.77 477.323 428.842 477.681 430.799C477.84 431.668 477.544 432.471 477.369 433.312L477.376 433.393L476.673 444.796C475.83 445.011 475.904 444.793 475.125 444.469C472.177 443.246 471.047 441 468.829 438.989C466.948 437.282 464.528 436.255 462.727 434.416C460.675 432.321 458.498 430.156 456.62 427.905C454.516 425.384 452.112 421.358 449.23 419.735C448.588 419.373 448.279 419.268 447.893 418.634C447.242 417.566 446.429 416.661 445.62 415.712C443.608 411.434 442.195 406.993 440.344 402.679C439.157 399.91 437.584 397.316 436.586 394.461C435.599 391.637 435.281 388.645 434.177 385.853C433.456 384.028 432.557 382.178 431.502 380.524C430.716 379.294 429.639 377.995 429.154 376.624C428.558 374.94 428.569 373.063 428.055 371.354C426.74 366.975 424.861 362.552 423.29 358.249C422.111 355.021 422.009 352.182 419.625 349.508Z"/>
	<path fill="#C77586" transform="scale(5.33355 4.90597)" d="M286.316 435.448C287.06 434.486 287.622 432.741 288.116 431.605C290.623 425.84 291.939 419.322 293.618 413.269C296.075 404.409 298.172 395.249 301.211 386.59C305.997 372.953 312.845 360.232 320.977 348.313C324.531 343.104 328.229 337.891 332.672 333.396C334.975 331.067 337.35 329.096 340.11 327.331C340.899 326.826 341.775 326.101 342.741 326.094C345.849 326.957 349.156 327.618 350.895 330.656C353.7 335.557 349.188 348.869 347.458 354.346L340.567 377.729C336.6 390.483 331.969 403.216 326.24 415.287C321.787 424.669 316.826 433.517 310.032 441.432C306.286 445.794 301.599 450.467 296.482 453.19C294.959 454 293.182 454.793 291.438 454.278C289.969 453.844 289.026 452.837 288.375 451.485C286.051 446.654 287.045 440.596 286.316 435.448Z"/>
	<path fill="#C77586" transform="scale(5.33355 4.90597)" d="M429.052 329.974C425.647 326.04 420.242 323.835 420.738 317.548C420.974 314.562 422.863 311.203 425.156 309.361C428.895 306.358 434.045 305.559 438.696 306.187C457.347 308.702 487.35 336.32 500.091 350.337C503.407 353.985 506.412 357.944 509.364 361.889C523.397 380.644 532.658 404.584 529.358 428.214C528.058 437.525 523.171 448.448 515.389 454.055C514.349 454.804 513.266 455.33 512.093 455.838C510.487 449.378 510.172 442.719 509.53 436.117C508.881 429.462 507.919 422.889 506.434 416.364C504.05 405.892 500.873 395.442 496.352 385.681C488.901 369.597 478.194 355.212 466.688 341.817C460.655 334.794 454.401 327.455 446.391 322.619C442.674 320.375 438.428 318.608 434.179 317.712C436.378 321.244 439.426 323.563 442.191 326.584C445.352 330.036 448.334 333.933 451.016 337.772C460.273 351.02 467.166 366.412 472.31 381.69C474.56 388.374 476.722 395.002 477.988 401.963C480.164 413.93 480.451 425.498 479.141 437.555C479.104 437.106 479.072 436.673 478.953 436.235C478.637 435.07 478.46 433.981 477.376 433.393L477.369 433.312C477.544 432.471 477.84 431.668 477.681 430.799C477.323 428.842 476.346 426.77 475.67 424.886L473.132 416.712L466.708 394.089C460.793 376.026 452.419 358.629 441.065 343.342C437.647 338.74 433.736 333.346 429.052 329.974Z"/>
	<path fill="#C77586" transform="scale(5.33355 4.90597)" d="M280.808 366.065C263.84 391.581 256.013 421.155 258.231 451.669C258.317 452.859 258.441 454.511 257.625 455.462C255.942 455.281 254.969 454.931 253.651 453.856C243.906 445.9 238.722 432.752 237.483 420.488C235.022 396.104 245.828 371.684 260.965 353.11C273.116 338.199 287.358 325.179 304.042 315.507C311.725 311.052 319.988 307.247 328.944 306.423C333.552 305.999 338.845 307.198 342.418 310.272C344.787 312.31 346.749 315.68 346.826 318.881C346.892 321.644 344.516 324.208 342.741 326.094C341.775 326.101 340.899 326.826 340.11 327.331C337.35 329.096 334.975 331.067 332.672 333.396C328.229 337.891 324.531 343.104 320.977 348.313C312.845 360.232 305.997 372.953 301.211 386.59C298.172 395.249 296.075 404.409 293.618 413.269C291.939 419.322 290.623 425.84 288.116 431.605C287.622 432.741 287.06 434.486 286.316 435.448C285.262 431.604 285.678 426.44 285.873 422.485C286.26 414.63 286.8 406.874 288.224 399.129C289.175 393.958 290.6 388.892 291.978 383.824C295.994 371.601 300.715 360.534 307.143 349.357L306.712 348.812C306.808 348.113 307.026 347.599 307.409 347.001C307.705 346.538 307.855 346.484 308.062 345.95C308.5 344.824 308.228 344.063 307.727 343.064C308.248 342.322 308.342 342.28 309.188 341.939L309.191 340.815L309.75 340.348L310.082 340.835L310.502 340.817C310.58 340.293 310.593 340.532 310.441 339.946L310.316 339.502C310.793 339.195 311.205 338.987 311.497 338.479L311.627 338.192L312.499 338.003L312.191 336.878C312.883 336.809 312.584 336.943 313.092 336.485C313.275 335.588 313.363 335.484 312.981 334.669L309.768 336.11C309.589 336.631 309.7 336.37 309.348 336.993L309.06 337.495C308.119 338.212 307.23 338.891 306.433 339.771C305.903 340.357 305.536 340.583 304.845 340.932C303.312 341.704 300.937 343.043 299.669 344.174C298.975 344.792 298.238 344.844 297.346 344.865L296.688 344.448C292.927 347.963 289.41 352.806 286.69 357.164L286.704 357.188L280.808 366.065ZM296.688 344.448L297.346 344.865C298.238 344.844 298.975 344.792 299.669 344.174C300.937 343.043 303.312 341.704 304.845 340.932C305.536 340.583 305.903 340.357 306.433 339.771C307.23 338.891 308.119 338.212 309.06 337.495L309.348 336.993C309.7 336.37 309.589 336.631 309.768 336.11L312.981 334.669C313.363 335.484 313.275 335.588 313.092 336.485C312.584 336.943 312.883 336.809 312.191 336.878L312.499 338.003L311.627 338.192L311.497 338.479C311.205 338.987 310.793 339.195 310.316 339.502L310.441 339.946C310.593 340.532 310.58 340.293 310.502 340.817L310.082 340.835L309.75 340.348L309.191 340.815L309.188 341.939C308.342 342.28 308.248 342.322 307.727 343.064C308.228 344.063 308.5 344.824 308.062 345.95C307.855 346.484 307.705 346.538 307.409 347.001C307.026 347.599 306.808 348.113 306.712 348.812L307.143 349.357C311.272 342.192 316.27 335.412 321.482 329.002C323.787 326.167 326.571 323.355 328.647 320.381C329.065 319.783 329.196 319.2 329.241 318.482C325.944 319.107 322.711 321.073 319.875 322.799C311.495 327.899 302.566 336.607 296.688 344.448Z"/>
	<path fill="#C77586" transform="scale(5.33355 4.90597)" d="M383.78 229.098L384.349 230.772C383.93 231.096 383.641 231.26 383.143 231.45C382.197 231.811 381.36 232.349 380.494 232.867L383.283 236.506C384.401 235.104 385.543 233.813 386.121 232.084C385.791 231.569 385.598 231.348 385.154 230.959C385.772 230.368 385.63 230.274 386.543 230.258L386.919 230.503C389.019 228.385 390.518 225.554 392.121 223.055C394.737 218.979 397.406 214.933 400.445 211.155C403.979 206.761 407.561 202.359 411.781 198.593C429.266 182.99 453.599 176.361 476.662 176.242C490.878 176.169 504.798 177.325 517.308 184.757C523.717 188.565 529.63 193.854 534.933 199.04C527.096 195.554 518.65 192.366 510.188 190.805C503.488 189.569 496.654 189.379 489.863 189.424C476.603 189.513 463.051 190.838 450.592 195.664C428.412 204.256 404.917 226.973 395.343 248.768C393.531 252.894 386.708 273.03 388.102 276.574L388.312 276.944C389.544 276.836 391.676 273.848 392.612 272.817C403.496 260.826 415.411 249.265 429.245 240.68C450.708 227.36 478.162 222.411 503.165 224.363C509.119 224.827 515.025 225.463 520.756 227.246C531.254 230.511 540.364 236.185 548.729 243.21C552.525 246.399 555.802 249.732 559.087 253.433C552.122 250.207 545.693 247.789 538.085 246.537C531.171 245.399 524.111 245.526 517.129 245.546C499.61 245.596 481.189 246.601 463.93 249.732C455.01 251.35 446.282 253.668 437.779 256.815C430.337 259.569 423.36 262.981 416.367 266.692C411.858 269.085 406.299 271.94 402.95 275.83C412.601 275.135 422.11 272.514 431.73 271.335C443.185 269.931 454.831 269.716 466.36 269.711C476.416 269.707 486.562 269.683 496.544 271.09C511.003 273.129 525.673 278.847 536.797 288.41C543.968 294.574 549.278 301.332 554.052 309.439C555.596 312.06 557.707 315.789 557.909 318.861C557.955 319.566 557.807 320.001 557.438 320.607C555.354 320.809 550.18 316.348 548.462 315.111C509.124 286.778 458.615 286.299 412.217 286.76L387.967 287.231C390.748 293.62 392.589 300.074 394.712 306.678L405.469 341.19L415.54 373.059C419.17 384.422 422.925 395.663 425.554 407.313C429.136 423.186 430.272 439.534 430.317 455.771C430.372 475.921 429.03 496.076 421.551 515.027C416.268 528.416 408.185 540.599 397.426 550.215L390.934 555.684C389.421 556.898 387.407 558.214 386.49 559.953L387.314 560.616C387.027 561.683 385.887 562.469 385.08 563.191C376.417 564.097 367.224 563.454 358.518 563.175L341.803 563.109L228.211 561.908C234.981 559.669 243.241 559.858 250.332 559.44L282.188 557.766C299.059 556.964 317.788 557.042 333.373 549.719C350.356 541.739 364.487 526.085 374.909 510.743C386.132 494.223 393.056 475.401 396.431 455.786C400.335 433.098 399.149 410.09 394.486 387.603C390.33 367.567 382.765 348.461 377.175 328.818C375.389 322.543 373.376 316.223 372.398 309.76C371.35 302.833 370.915 294.793 373.357 288.109L373.572 287.526C371.23 287.092 369.055 286.033 366.833 285.197L352.947 279.996C335.384 273.289 317.747 269.241 298.855 269.37C272.93 269.547 246.756 275.758 226.373 292.547C218.166 299.307 210.804 307.441 203.331 314.993L203.248 314.815C204.205 310.288 205.193 305.717 207.022 301.447C210.108 294.243 214.991 287.877 219.603 281.593C213.433 285.02 208.13 288.626 203.735 294.215C202.268 296.08 200.818 299.083 198.929 300.385C203.653 287.882 212.251 277.323 222.356 268.714C229.187 262.894 236.39 257.761 244.507 253.893C262.634 245.255 283.888 243.99 303.599 245.684C311.2 246.337 319.174 248.407 326.398 250.766C343.849 256.464 362.789 265.982 374.796 280.315L375.113 280.696C375.601 272.031 374.826 262.459 372.323 254.145C370.21 247.126 366.485 240.872 362.283 234.921C352.253 220.717 339.486 208.917 324.102 200.721C305.71 190.922 283.514 188.104 262.954 190.7C252.728 191.991 242.798 194.747 232.957 197.729C239.997 192.096 247.607 186.437 255.901 182.794C264.368 179.075 274.28 177.49 283.5 177.288C311.281 176.68 338.46 184.086 358.924 203.64C366.055 210.454 371.442 218.444 376.8 226.659L378.562 226.303C379.828 225.833 379.785 225.236 380.223 224.076L380.22 223.799L381.239 223.652L381.559 224.114C382.187 225.373 382.753 226.854 383.758 227.853L383.641 228.352L383.78 229.098ZM380.22 223.799L380.223 224.076C379.785 225.236 379.828 225.833 378.562 226.303L376.8 226.659C377.228 228.312 378.442 229.944 379.312 231.413L379.371 231.031C379.493 230.419 379.438 230.637 379.875 230.058C381.078 230.334 381.678 230.608 382.877 230.254L383.78 229.098L383.641 228.352L383.758 227.853C382.753 226.854 382.187 225.373 381.559 224.114L381.239 223.652L380.22 223.799Z"/>
	<path fill="#C77586" transform="scale(5.33355 4.90597)" d="M380.22 223.799L381.239 223.652L381.559 224.114C382.187 225.373 382.753 226.854 383.758 227.853L383.641 228.352L383.78 229.098L382.877 230.254C381.678 230.608 381.078 230.334 379.875 230.058C379.438 230.637 379.493 230.419 379.371 231.031L379.312 231.413C378.442 229.944 377.228 228.312 376.8 226.659L378.562 226.303C379.828 225.833 379.785 225.236 380.223 224.076L380.22 223.799ZM380.22 223.799L380.223 224.076C380.332 225.889 380.173 227.168 381.471 228.571C382.234 228.553 382.896 228.536 383.641 228.352L383.758 227.853C382.753 226.854 382.187 225.373 381.559 224.114L381.239 223.652L380.22 223.799Z"/>
	<path fill="#C77586" transform="scale(5.33355 4.90597)" d="M380.22 223.799L381.239 223.652L381.559 224.114C382.187 225.373 382.753 226.854 383.758 227.853L383.641 228.352C382.896 228.536 382.234 228.553 381.471 228.571C380.173 227.168 380.332 225.889 380.223 224.076L380.22 223.799Z"/>
</svg>
